<?xml version="1.0" encoding="UTF-8"?>
<svg xmlns="http://www.w3.org/2000/svg" xmlns:xlink="http://www.w3.org/1999/xlink" width="20pt" height="20pt" viewBox="0 0 20 20" version="1.1">
<g id="surface1">
<path style=" stroke:none;fill-rule:nonzero;fill:rgb(0%,0%,0%);fill-opacity:1;" d="M 11.496094 15.765625 L 1.5 15.765625 C 0.671875 15.765625 0 16.4375 0 17.269531 L 0 20 L 13 20 L 13 17.269531 C 13 16.4375 12.328125 15.765625 11.496094 15.765625 Z M 11.496094 15.765625 "/>
<path style=" stroke:none;fill-rule:nonzero;fill:rgb(0%,0%,0%);fill-opacity:1;" d="M 19.730469 15.976562 L 10.605469 6.851562 L 12.367188 5.09375 C 12.660156 5.351562 13.105469 5.335938 13.378906 5.0625 C 13.667969 4.773438 13.667969 4.304688 13.378906 4.015625 L 9.582031 0.21875 C 9.292969 -0.0703125 8.824219 -0.0703125 8.539062 0.21875 C 8.246094 0.507812 8.246094 0.976562 8.539062 1.261719 L 8.507812 1.230469 L 3.679688 6.054688 L 3.710938 6.085938 C 3.425781 5.796875 2.957031 5.796875 2.667969 6.085938 C 2.378906 6.375 2.378906 6.84375 2.667969 7.132812 L 6.464844 10.929688 C 6.757812 11.21875 7.226562 11.21875 7.511719 10.929688 C 7.800781 10.640625 7.800781 10.175781 7.511719 9.882812 L 7.542969 9.914062 L 9.304688 8.15625 L 18.425781 17.277344 C 18.785156 17.636719 19.371094 17.636719 19.730469 17.277344 C 20.089844 16.917969 20.089844 16.335938 19.730469 15.976562 Z M 19.730469 15.976562 "/>
</g>
</svg>
