<?xml version="1.0" encoding="UTF-8"?>
<svg xmlns="http://www.w3.org/2000/svg" xmlns:xlink="http://www.w3.org/1999/xlink" width="20pt" height="20pt" viewBox="0 0 20 20" version="1.1">
<g id="surface1">
<path style=" stroke:none;fill-rule:nonzero;fill:rgb(0%,0%,0%);fill-opacity:1;" d="M 8.929688 13.5625 L 8.953125 13.5625 C 9.421875 13.5625 9.832031 13.25 9.960938 12.804688 L 7.921875 12.804688 C 8.050781 13.25 8.460938 13.5625 8.929688 13.5625 Z M 8.929688 13.5625 "/>
<path style=" stroke:none;fill-rule:nonzero;fill:rgb(0%,0%,0%);fill-opacity:1;" d="M 11.988281 10.480469 L 11.972656 10.480469 C 11.765625 10.480469 11.613281 10.667969 11.613281 10.878906 L 11.613281 11.144531 L 12.371094 11.144531 L 12.371094 10.878906 C 12.371094 10.664062 12.203125 10.488281 11.988281 10.480469 Z M 11.988281 10.480469 "/>
<path style=" stroke:none;fill-rule:nonzero;fill:rgb(0%,0%,0%);fill-opacity:1;" d="M 10.902344 6.6875 C 10.898438 6.65625 10.871094 6.636719 10.839844 6.636719 L 7.042969 6.636719 C 7.015625 6.636719 7.011719 6.660156 7.011719 6.6875 L 7.011719 7.394531 L 10.902344 7.394531 Z M 10.902344 6.6875 "/>
<path style=" stroke:none;fill-rule:nonzero;fill:rgb(0%,0%,0%);fill-opacity:1;" d="M 5.90625 10.480469 L 5.894531 10.480469 C 5.675781 10.488281 5.503906 10.660156 5.492188 10.878906 L 5.492188 11.144531 L 6.300781 11.144531 L 6.300781 10.878906 C 6.296875 10.664062 6.125 10.488281 5.90625 10.480469 Z M 5.90625 10.480469 "/>
<path style=" stroke:none;fill-rule:nonzero;fill:rgb(0%,0%,0%);fill-opacity:1;" d="M 13.179688 7.964844 L 4.734375 7.964844 C 4.105469 7.964844 3.597656 8.476562 3.597656 9.101562 L 3.597656 13.324219 C 3.597656 13.953125 4.105469 14.464844 4.734375 14.464844 L 13.179688 14.464844 C 13.808594 14.464844 14.316406 13.953125 14.316406 13.324219 L 14.316406 9.101562 C 14.316406 8.476562 13.808594 7.964844 13.179688 7.964844 Z M 6.867188 11.441406 C 6.867188 11.601562 6.730469 11.710938 6.570312 11.710938 L 5.230469 11.710938 C 5.074219 11.710938 4.925781 11.601562 4.925781 11.441406 L 4.925781 10.878906 C 4.933594 10.347656 5.363281 9.917969 5.894531 9.910156 L 5.90625 9.910156 C 6.4375 9.917969 6.863281 10.347656 6.867188 10.878906 Z M 10.570312 12.527344 C 10.566406 13.414062 9.84375 14.132812 8.953125 14.132812 L 8.929688 14.132812 C 8.039062 14.132812 7.296875 13.414062 7.296875 12.527344 L 7.296875 12.511719 C 7.296875 12.355469 7.441406 12.234375 7.601562 12.234375 L 10.28125 12.234375 C 10.355469 12.234375 10.429688 12.261719 10.484375 12.3125 C 10.539062 12.367188 10.570312 12.4375 10.570312 12.511719 Z M 12.941406 11.441406 C 12.9375 11.519531 12.90625 11.589844 12.851562 11.640625 C 12.796875 11.691406 12.726562 11.714844 12.652344 11.710938 L 11.308594 11.710938 C 11.238281 11.714844 11.167969 11.6875 11.117188 11.636719 C 11.066406 11.585938 11.039062 11.515625 11.042969 11.441406 L 11.042969 10.878906 C 11.042969 10.355469 11.453125 9.910156 11.972656 9.910156 L 11.988281 9.910156 C 12.511719 9.910156 12.941406 10.355469 12.941406 10.878906 Z M 12.941406 11.441406 "/>
<path style=" stroke:none;fill-rule:nonzero;fill:rgb(0%,0%,0%);fill-opacity:1;" d="M 16.421875 6.320312 C 16.421875 5.890625 16.074219 5.546875 15.644531 5.546875 C 15.21875 5.546875 14.871094 5.890625 14.871094 6.320312 C 14.871094 6.746094 15.21875 7.09375 15.644531 7.09375 C 16.074219 7.09375 16.417969 6.746094 16.421875 6.320312 Z M 16.421875 6.320312 "/>
<path style=" stroke:none;fill-rule:nonzero;fill:rgb(0%,0%,0%);fill-opacity:1;" d="M 19.820312 9.820312 C 19.820312 4.40625 15.414062 0 10 0 C 4.585938 0 0.179688 4.40625 0.179688 9.820312 C 0.179688 15.234375 4.585938 19.640625 10 19.640625 C 11.132812 19.640625 12.257812 19.441406 13.324219 19.054688 L 18.746094 20.003906 C 18.863281 20.027344 18.988281 19.980469 19.0625 19.882812 C 19.136719 19.789062 19.15625 19.660156 19.109375 19.546875 L 17.605469 16.019531 C 19.042969 14.273438 19.824219 12.082031 19.820312 9.820312 Z M 14.847656 13.605469 C 14.710938 14.429688 14 15.03125 13.164062 15.035156 L 4.71875 15.035156 C 4.265625 15.03125 3.835938 14.851562 3.515625 14.53125 C 3.199219 14.210938 3.023438 13.777344 3.027344 13.324219 L 3.027344 9.113281 C 3.027344 8.171875 3.777344 7.394531 4.71875 7.394531 L 6.441406 7.394531 L 6.441406 6.6875 C 6.441406 6.347656 6.699219 6.066406 7.042969 6.066406 L 8.625 6.066406 L 8.625 5.367188 C 8.625 5.210938 8.75 5.085938 8.910156 5.085938 C 9.066406 5.085938 9.195312 5.210938 9.195312 5.367188 L 9.195312 6.066406 L 10.839844 6.066406 C 11.183594 6.066406 11.464844 6.34375 11.46875 6.6875 L 11.46875 7.394531 L 13.164062 7.394531 C 14 7.398438 14.710938 8.003906 14.847656 8.828125 C 15.023438 8.84375 15.195312 8.886719 15.359375 8.945312 L 15.359375 7.632812 C 14.6875 7.488281 14.234375 6.859375 14.308594 6.175781 C 14.382812 5.492188 14.957031 4.976562 15.644531 4.976562 C 16.332031 4.976562 16.90625 5.492188 16.980469 6.175781 C 17.054688 6.859375 16.601562 7.488281 15.929688 7.632812 L 15.929688 9.230469 C 16.546875 9.660156 16.988281 10.394531 16.988281 11.21875 C 16.988281 12.445312 16.066406 13.472656 14.847656 13.605469 Z M 14.847656 13.605469 "/>
<path style=" stroke:none;fill-rule:nonzero;fill:rgb(0%,0%,0%);fill-opacity:1;" d="M 14.886719 9.410156 L 14.886719 13.03125 C 15.738281 12.894531 16.433594 12.132812 16.433594 11.21875 C 16.433594 10.304688 15.738281 9.546875 14.886719 9.410156 Z M 14.886719 9.410156 "/>
</g>
</svg>
