<?xml version="1.0" encoding="UTF-8"?>
<svg xmlns="http://www.w3.org/2000/svg" xmlns:xlink="http://www.w3.org/1999/xlink" width="20pt" height="20pt" viewBox="0 0 20 20" version="1.1">
<g id="surface1">
<path style=" stroke:none;fill-rule:nonzero;fill:rgb(0%,0%,0%);fill-opacity:1;" d="M 7.8125 14.6875 C 5.976562 14.6875 4.25 13.972656 2.949219 12.671875 C 1.652344 11.375 0.9375 9.648438 0.9375 7.8125 C 0.9375 5.976562 1.652344 4.25 2.949219 2.949219 C 4.25 1.652344 5.976562 0.9375 7.8125 0.9375 C 9.648438 0.9375 11.375 1.652344 12.675781 2.949219 C 15.355469 5.632812 15.355469 9.992188 12.675781 12.671875 C 11.375 13.972656 9.648438 14.6875 7.8125 14.6875 Z M 7.8125 1.5625 C 6.144531 1.5625 4.574219 2.210938 3.394531 3.394531 C 2.210938 4.574219 1.5625 6.140625 1.5625 7.8125 C 1.5625 9.480469 2.210938 11.050781 3.394531 12.230469 C 4.574219 13.410156 6.144531 14.0625 7.8125 14.0625 C 9.480469 14.0625 11.050781 13.410156 12.230469 12.230469 C 14.667969 9.792969 14.667969 5.828125 12.230469 3.394531 C 11.050781 2.210938 9.480469 1.5625 7.8125 1.5625 Z M 7.8125 1.5625 "/>
<path style=" stroke:none;fill-rule:nonzero;fill:rgb(0%,0%,0%);fill-opacity:1;" d="M 7.8125 15.625 C 5.726562 15.625 3.765625 14.8125 2.289062 13.335938 C 0.8125 11.859375 0 9.898438 0 7.8125 C 0 5.726562 0.8125 3.761719 2.289062 2.289062 C 3.765625 0.8125 5.726562 0 7.8125 0 C 9.898438 0 11.859375 0.8125 13.335938 2.289062 C 16.382812 5.335938 16.382812 10.289062 13.335938 13.335938 C 11.859375 14.8125 9.898438 15.625 7.8125 15.625 Z M 7.8125 0.625 C 5.894531 0.625 4.085938 1.371094 2.730469 2.730469 C 1.371094 4.085938 0.625 5.890625 0.625 7.8125 C 0.625 9.730469 1.371094 11.539062 2.730469 12.894531 C 4.085938 14.253906 5.890625 15 7.8125 15 C 9.730469 15 11.539062 14.25 12.894531 12.894531 C 15.695312 10.09375 15.695312 5.53125 12.894531 2.730469 C 11.539062 1.371094 9.734375 0.625 7.8125 0.625 Z M 7.8125 0.625 "/>
<path style=" stroke:none;fill-rule:nonzero;fill:rgb(0%,0%,0%);fill-opacity:1;" d="M 14.375 15.574219 C 14.296875 15.574219 14.21875 15.542969 14.15625 15.480469 L 12.433594 13.761719 C 12.3125 13.636719 12.3125 13.441406 12.433594 13.316406 C 12.558594 13.195312 12.753906 13.195312 12.875 13.316406 L 14.597656 15.039062 C 14.71875 15.160156 14.71875 15.359375 14.597656 15.480469 C 14.535156 15.542969 14.457031 15.574219 14.375 15.574219 Z M 14.375 15.574219 "/>
<path style=" stroke:none;fill-rule:nonzero;fill:rgb(0%,0%,0%);fill-opacity:1;" d="M 15.261719 14.6875 C 15.179688 14.6875 15.101562 14.660156 15.039062 14.597656 L 13.316406 12.875 C 13.195312 12.753906 13.195312 12.554688 13.316406 12.433594 C 13.4375 12.308594 13.636719 12.308594 13.757812 12.433594 L 15.480469 14.15625 C 15.605469 14.277344 15.605469 14.476562 15.480469 14.597656 C 15.421875 14.660156 15.339844 14.6875 15.261719 14.6875 Z M 15.261719 14.6875 "/>
<path style=" stroke:none;fill-rule:nonzero;fill:rgb(0%,0%,0%);fill-opacity:1;" d="M 13.933594 16.015625 C 13.855469 16.015625 13.773438 15.984375 13.714844 15.921875 C 13.59375 15.800781 13.59375 15.605469 13.714844 15.480469 L 15.480469 13.714844 C 15.605469 13.589844 15.800781 13.589844 15.921875 13.714844 C 16.046875 13.835938 16.046875 14.03125 15.921875 14.15625 L 14.15625 15.921875 C 14.09375 15.984375 14.015625 16.015625 13.933594 16.015625 Z M 13.933594 16.015625 "/>
<path style=" stroke:none;fill-rule:nonzero;fill:rgb(0%,0%,0%);fill-opacity:1;" d="M 17.554688 19.632812 C 17.472656 19.632812 17.394531 19.601562 17.332031 19.542969 L 13.714844 15.921875 C 13.59375 15.800781 13.59375 15.605469 13.714844 15.480469 C 13.835938 15.359375 14.035156 15.359375 14.15625 15.480469 L 17.773438 19.101562 C 17.898438 19.222656 17.898438 19.421875 17.773438 19.542969 C 17.714844 19.601562 17.632812 19.632812 17.554688 19.632812 Z M 17.554688 19.632812 "/>
<path style=" stroke:none;fill-rule:nonzero;fill:rgb(0%,0%,0%);fill-opacity:1;" d="M 19.320312 17.867188 C 19.242188 17.867188 19.160156 17.835938 19.101562 17.773438 L 15.480469 14.15625 C 15.359375 14.03125 15.359375 13.835938 15.480469 13.714844 C 15.605469 13.589844 15.800781 13.589844 15.921875 13.714844 L 19.542969 17.332031 C 19.664062 17.457031 19.664062 17.652344 19.542969 17.773438 C 19.480469 17.835938 19.402344 17.867188 19.320312 17.867188 Z M 19.320312 17.867188 "/>
<path style=" stroke:none;fill-rule:nonzero;fill:rgb(0%,0%,0%);fill-opacity:1;" d="M 18.4375 20 C 18.019531 20 17.628906 19.835938 17.332031 19.542969 C 17.210938 19.421875 17.210938 19.222656 17.332031 19.101562 C 17.453125 18.976562 17.652344 18.976562 17.773438 19.101562 C 18.128906 19.453125 18.746094 19.457031 19.101562 19.101562 C 19.277344 18.921875 19.375 18.6875 19.375 18.4375 C 19.375 18.1875 19.277344 17.953125 19.101562 17.773438 C 18.976562 17.652344 18.976562 17.457031 19.101562 17.332031 C 19.222656 17.210938 19.421875 17.210938 19.542969 17.332031 C 19.835938 17.628906 20 18.019531 20 18.4375 C 20 18.855469 19.835938 19.246094 19.542969 19.542969 C 19.246094 19.835938 18.855469 20 18.4375 20 Z M 18.4375 20 "/>
<path style=" stroke:none;fill-rule:nonzero;fill:rgb(0%,0%,0%);fill-opacity:1;" d="M 5.003906 13.441406 C 4.832031 13.441406 4.691406 13.304688 4.691406 13.128906 C 4.691406 12.613281 5.113281 12.191406 5.628906 12.191406 C 5.800781 12.191406 5.941406 12.332031 5.941406 12.503906 C 5.941406 12.679688 5.800781 12.816406 5.628906 12.816406 C 5.457031 12.816406 5.316406 12.957031 5.316406 13.128906 C 5.316406 13.304688 5.175781 13.441406 5.003906 13.441406 Z M 5.003906 13.441406 "/>
<path style=" stroke:none;fill-rule:nonzero;fill:rgb(0%,0%,0%);fill-opacity:1;" d="M 5.003906 14.039062 C 4.832031 14.039062 4.691406 13.898438 4.691406 13.726562 L 4.691406 13.128906 C 4.691406 12.957031 4.832031 12.816406 5.003906 12.816406 C 5.175781 12.816406 5.316406 12.957031 5.316406 13.128906 L 5.316406 13.726562 C 5.316406 13.898438 5.175781 14.039062 5.003906 14.039062 Z M 5.003906 14.039062 "/>
<path style=" stroke:none;fill-rule:nonzero;fill:rgb(0%,0%,0%);fill-opacity:1;" d="M 10.628906 13.441406 C 10.457031 13.441406 10.316406 13.304688 10.316406 13.128906 C 10.316406 12.957031 10.175781 12.816406 10.003906 12.816406 C 9.832031 12.816406 9.691406 12.679688 9.691406 12.503906 C 9.691406 12.332031 9.832031 12.191406 10.003906 12.191406 C 10.519531 12.191406 10.941406 12.613281 10.941406 13.128906 C 10.941406 13.304688 10.800781 13.441406 10.628906 13.441406 Z M 10.628906 13.441406 "/>
<path style=" stroke:none;fill-rule:nonzero;fill:rgb(0%,0%,0%);fill-opacity:1;" d="M 10.628906 14.054688 C 10.457031 14.054688 10.316406 13.914062 10.316406 13.742188 L 10.316406 13.128906 C 10.316406 12.957031 10.457031 12.816406 10.628906 12.816406 C 10.800781 12.816406 10.941406 12.957031 10.941406 13.128906 L 10.941406 13.742188 C 10.941406 13.914062 10.800781 14.054688 10.628906 14.054688 Z M 10.628906 14.054688 "/>
<path style=" stroke:none;fill-rule:nonzero;fill:rgb(0%,0%,0%);fill-opacity:1;" d="M 10.003906 12.816406 L 5.628906 12.816406 C 5.457031 12.816406 5.316406 12.679688 5.316406 12.503906 C 5.316406 12.332031 5.457031 12.191406 5.628906 12.191406 L 10.003906 12.191406 C 10.175781 12.191406 10.316406 12.332031 10.316406 12.503906 C 10.316406 12.679688 10.175781 12.816406 10.003906 12.816406 Z M 10.003906 12.816406 "/>
<path style=" stroke:none;fill-rule:nonzero;fill:rgb(0%,0%,0%);fill-opacity:1;" d="M 7.339844 12.816406 C 7.167969 12.816406 7.027344 12.679688 7.027344 12.503906 L 7.027344 5.628906 C 7.027344 5.457031 7.167969 5.316406 7.339844 5.316406 C 7.511719 5.316406 7.652344 5.457031 7.652344 5.628906 L 7.652344 12.503906 C 7.652344 12.679688 7.511719 12.816406 7.339844 12.816406 Z M 7.339844 12.816406 "/>
<path style=" stroke:none;fill-rule:nonzero;fill:rgb(0%,0%,0%);fill-opacity:1;" d="M 8.277344 12.816406 C 8.105469 12.816406 7.964844 12.679688 7.964844 12.503906 L 7.964844 5.628906 C 7.964844 5.457031 8.105469 5.316406 8.277344 5.316406 C 8.449219 5.316406 8.589844 5.457031 8.589844 5.628906 L 8.589844 12.503906 C 8.589844 12.679688 8.449219 12.816406 8.277344 12.816406 Z M 8.277344 12.816406 "/>
<path style=" stroke:none;fill-rule:nonzero;fill:rgb(0%,0%,0%);fill-opacity:1;" d="M 8.277344 4.222656 C 8.105469 4.222656 7.964844 4.082031 7.964844 3.910156 C 7.964844 3.824219 7.894531 3.753906 7.808594 3.753906 C 7.722656 3.753906 7.652344 3.824219 7.652344 3.910156 C 7.652344 4.082031 7.511719 4.222656 7.339844 4.222656 C 7.167969 4.222656 7.027344 4.082031 7.027344 3.910156 C 7.027344 3.480469 7.375 3.128906 7.808594 3.128906 C 8.238281 3.128906 8.589844 3.480469 8.589844 3.910156 C 8.589844 4.082031 8.449219 4.222656 8.277344 4.222656 Z M 8.277344 4.222656 "/>
<path style=" stroke:none;fill-rule:nonzero;fill:rgb(0%,0%,0%);fill-opacity:1;" d="M 11.40625 5.941406 C 11.234375 5.941406 11.09375 5.800781 11.09375 5.628906 C 11.09375 5.457031 11.234375 5.316406 11.40625 5.316406 C 11.492188 5.316406 11.5625 5.246094 11.5625 5.160156 C 11.5625 5.074219 11.492188 5.003906 11.40625 5.003906 C 11.234375 5.003906 11.09375 4.863281 11.09375 4.691406 C 11.09375 4.519531 11.234375 4.378906 11.40625 4.378906 C 11.835938 4.378906 12.1875 4.730469 12.1875 5.160156 C 12.1875 5.59375 11.835938 5.941406 11.40625 5.941406 Z M 11.40625 5.941406 "/>
<path style=" stroke:none;fill-rule:nonzero;fill:rgb(0%,0%,0%);fill-opacity:1;" d="M 4.21875 5.941406 C 3.789062 5.941406 3.4375 5.59375 3.4375 5.160156 C 3.4375 4.730469 3.789062 4.378906 4.21875 4.378906 C 4.390625 4.378906 4.53125 4.519531 4.53125 4.691406 C 4.53125 4.863281 4.390625 5.003906 4.21875 5.003906 C 4.132812 5.003906 4.0625 5.074219 4.0625 5.160156 C 4.0625 5.246094 4.132812 5.316406 4.21875 5.316406 C 4.390625 5.316406 4.53125 5.457031 4.53125 5.628906 C 4.53125 5.800781 4.390625 5.941406 4.21875 5.941406 Z M 4.21875 5.941406 "/>
<path style=" stroke:none;fill-rule:nonzero;fill:rgb(0%,0%,0%);fill-opacity:1;" d="M 11.40625 5.003906 L 4.238281 5.003906 C 4.066406 5.003906 3.925781 4.867188 3.925781 4.691406 C 3.925781 4.519531 4.066406 4.378906 4.238281 4.378906 L 11.40625 4.378906 C 11.578125 4.378906 11.71875 4.519531 11.71875 4.691406 C 11.71875 4.867188 11.578125 5.003906 11.40625 5.003906 Z M 11.40625 5.003906 "/>
<path style=" stroke:none;fill-rule:nonzero;fill:rgb(0%,0%,0%);fill-opacity:1;" d="M 11.40625 5.941406 L 4.238281 5.941406 C 4.066406 5.941406 3.925781 5.800781 3.925781 5.628906 C 3.925781 5.457031 4.066406 5.316406 4.238281 5.316406 L 11.40625 5.316406 C 11.578125 5.316406 11.71875 5.457031 11.71875 5.628906 C 11.71875 5.800781 11.578125 5.941406 11.40625 5.941406 Z M 11.40625 5.941406 "/>
<path style=" stroke:none;fill-rule:nonzero;fill:rgb(0%,0%,0%);fill-opacity:1;" d="M 7.339844 5.003906 C 7.167969 5.003906 7.027344 4.867188 7.027344 4.691406 L 7.027344 3.910156 C 7.027344 3.738281 7.167969 3.597656 7.339844 3.597656 C 7.511719 3.597656 7.652344 3.738281 7.652344 3.910156 L 7.652344 4.691406 C 7.652344 4.863281 7.511719 5.003906 7.339844 5.003906 Z M 7.339844 5.003906 "/>
<path style=" stroke:none;fill-rule:nonzero;fill:rgb(0%,0%,0%);fill-opacity:1;" d="M 8.277344 5.003906 C 8.105469 5.003906 7.964844 4.863281 7.964844 4.691406 L 7.964844 3.910156 C 7.964844 3.738281 8.105469 3.597656 8.277344 3.597656 C 8.449219 3.597656 8.589844 3.738281 8.589844 3.910156 L 8.589844 4.691406 C 8.589844 4.863281 8.449219 5.003906 8.277344 5.003906 Z M 8.277344 5.003906 "/>
<path style=" stroke:none;fill-rule:nonzero;fill:rgb(0%,0%,0%);fill-opacity:1;" d="M 4.375 10.316406 C 3.515625 10.316406 2.8125 9.617188 2.8125 8.753906 C 2.8125 8.582031 2.953125 8.441406 3.125 8.441406 C 3.296875 8.441406 3.4375 8.582031 3.4375 8.753906 C 3.4375 9.273438 3.859375 9.691406 4.375 9.691406 C 4.890625 9.691406 5.3125 9.273438 5.3125 8.753906 C 5.3125 8.582031 5.453125 8.441406 5.625 8.441406 C 5.796875 8.441406 5.9375 8.582031 5.9375 8.753906 C 5.9375 9.617188 5.238281 10.316406 4.375 10.316406 Z M 4.375 10.316406 "/>
<path style=" stroke:none;fill-rule:nonzero;fill:rgb(0%,0%,0%);fill-opacity:1;" d="M 5.625 9.066406 L 3.125 9.066406 C 2.953125 9.066406 2.8125 8.929688 2.8125 8.753906 C 2.8125 8.582031 2.953125 8.441406 3.125 8.441406 L 5.625 8.441406 C 5.796875 8.441406 5.9375 8.582031 5.9375 8.753906 C 5.9375 8.929688 5.796875 9.066406 5.625 9.066406 Z M 5.625 9.066406 "/>
<path style=" stroke:none;fill-rule:nonzero;fill:rgb(0%,0%,0%);fill-opacity:1;" d="M 3.125 9.066406 C 3.085938 9.066406 3.046875 9.0625 3.007812 9.046875 C 2.847656 8.980469 2.769531 8.800781 2.835938 8.640625 L 4.085938 5.515625 C 4.148438 5.351562 4.332031 5.273438 4.492188 5.339844 C 4.652344 5.402344 4.730469 5.585938 4.667969 5.746094 L 3.414062 8.871094 C 3.367188 8.992188 3.25 9.066406 3.125 9.066406 Z M 3.125 9.066406 "/>
<path style=" stroke:none;fill-rule:nonzero;fill:rgb(0%,0%,0%);fill-opacity:1;" d="M 5.625 9.066406 C 5.5 9.066406 5.382812 8.992188 5.335938 8.871094 L 4.085938 5.746094 C 4.023438 5.585938 4.101562 5.402344 4.261719 5.339844 C 4.417969 5.273438 4.601562 5.351562 4.667969 5.515625 L 5.914062 8.640625 C 5.980469 8.800781 5.902344 8.980469 5.742188 9.046875 C 5.703125 9.058594 5.664062 9.066406 5.625 9.066406 Z M 5.625 9.066406 "/>
<path style=" stroke:none;fill-rule:nonzero;fill:rgb(0%,0%,0%);fill-opacity:1;" d="M 11.257812 10.316406 C 10.394531 10.316406 9.695312 9.617188 9.695312 8.753906 C 9.695312 8.582031 9.835938 8.441406 10.007812 8.441406 C 10.179688 8.441406 10.320312 8.582031 10.320312 8.753906 C 10.320312 9.273438 10.742188 9.691406 11.257812 9.691406 C 11.773438 9.691406 12.195312 9.273438 12.195312 8.753906 C 12.195312 8.582031 12.335938 8.441406 12.507812 8.441406 C 12.679688 8.441406 12.820312 8.582031 12.820312 8.753906 C 12.820312 9.617188 12.117188 10.316406 11.257812 10.316406 Z M 11.257812 10.316406 "/>
<path style=" stroke:none;fill-rule:nonzero;fill:rgb(0%,0%,0%);fill-opacity:1;" d="M 12.507812 9.066406 L 10.007812 9.066406 C 9.835938 9.066406 9.695312 8.929688 9.695312 8.753906 C 9.695312 8.582031 9.835938 8.441406 10.007812 8.441406 L 12.507812 8.441406 C 12.679688 8.441406 12.820312 8.582031 12.820312 8.753906 C 12.820312 8.929688 12.679688 9.066406 12.507812 9.066406 Z M 12.507812 9.066406 "/>
<path style=" stroke:none;fill-rule:nonzero;fill:rgb(0%,0%,0%);fill-opacity:1;" d="M 10.007812 9.066406 C 9.96875 9.066406 9.929688 9.0625 9.890625 9.046875 C 9.730469 8.980469 9.652344 8.800781 9.71875 8.640625 L 10.96875 5.515625 C 11.03125 5.351562 11.214844 5.273438 11.375 5.339844 C 11.535156 5.402344 11.613281 5.585938 11.546875 5.746094 L 10.296875 8.871094 C 10.25 8.992188 10.132812 9.066406 10.007812 9.066406 Z M 10.007812 9.066406 "/>
<path style=" stroke:none;fill-rule:nonzero;fill:rgb(0%,0%,0%);fill-opacity:1;" d="M 12.507812 9.066406 C 12.382812 9.066406 12.265625 8.992188 12.21875 8.871094 L 10.96875 5.746094 C 10.902344 5.585938 10.980469 5.402344 11.140625 5.339844 C 11.300781 5.273438 11.484375 5.351562 11.546875 5.515625 L 12.796875 8.640625 C 12.863281 8.800781 12.785156 8.980469 12.625 9.046875 C 12.585938 9.058594 12.546875 9.066406 12.507812 9.066406 Z M 12.507812 9.066406 "/>
</g>
</svg>
