<?xml version="1.0" encoding="UTF-8"?>
<svg xmlns="http://www.w3.org/2000/svg" xmlns:xlink="http://www.w3.org/1999/xlink" width="20pt" height="20pt" viewBox="0 0 20 20" version="1.1">
<g id="surface1">
<path style=" stroke:none;fill-rule:nonzero;fill:rgb(0%,0%,0%);fill-opacity:1;" d="M 19.679688 9.113281 L 16.648438 6.078125 L 16.648438 2.574219 C 16.648438 1.941406 16.132812 1.425781 15.5 1.425781 C 14.867188 1.425781 14.351562 1.941406 14.351562 2.574219 L 14.351562 3.785156 L 12.09375 1.523438 C 10.976562 0.410156 9.035156 0.410156 7.921875 1.527344 L 0.335938 9.113281 C -0.113281 9.558594 -0.113281 10.285156 0.335938 10.734375 C 0.785156 11.183594 1.511719 11.183594 1.957031 10.734375 L 9.542969 3.148438 C 9.789062 2.902344 10.226562 2.902344 10.472656 3.148438 L 18.058594 10.734375 C 18.28125 10.957031 18.574219 11.070312 18.867188 11.070312 C 19.164062 11.070312 19.457031 10.957031 19.679688 10.734375 C 20.128906 10.285156 20.128906 9.558594 19.679688 9.113281 Z M 19.679688 9.113281 "/>
<path style=" stroke:none;fill-rule:nonzero;fill:rgb(0%,0%,0%);fill-opacity:1;" d="M 10.40625 5.328125 C 10.1875 5.105469 9.828125 5.105469 9.609375 5.328125 L 2.9375 11.996094 C 2.832031 12.101562 2.773438 12.246094 2.773438 12.394531 L 2.773438 17.261719 C 2.773438 18.402344 3.699219 19.328125 4.839844 19.328125 L 8.144531 19.328125 L 8.144531 14.210938 L 11.871094 14.210938 L 11.871094 19.328125 L 15.175781 19.328125 C 16.316406 19.328125 17.242188 18.402344 17.242188 17.261719 L 17.242188 12.394531 C 17.242188 12.246094 17.183594 12.101562 17.078125 11.996094 Z M 10.40625 5.328125 "/>
</g>
</svg>
