<?xml version="1.0" encoding="UTF-8"?>
<svg xmlns="http://www.w3.org/2000/svg" xmlns:xlink="http://www.w3.org/1999/xlink" width="20pt" height="20pt" viewBox="0 0 20 20" version="1.1">
<g id="surface1">
<path style=" stroke:none;fill-rule:nonzero;fill:rgb(1.176471%,0.392157%,1.568627%);fill-opacity:1;" d="M 10 0 C 4.476562 0 0 4.476562 0 10 C 0 15.523438 4.476562 20 10 20 C 15.523438 20 20 15.523438 20 10 C 20 4.476562 15.523438 0 10 0 Z M 12.082031 15.496094 C 11.566406 15.699219 11.15625 15.855469 10.847656 15.960938 C 10.542969 16.070312 10.1875 16.121094 9.78125 16.121094 C 9.15625 16.121094 8.671875 15.96875 8.328125 15.664062 C 7.980469 15.363281 7.808594 14.976562 7.808594 14.507812 C 7.808594 14.328125 7.824219 14.140625 7.847656 13.949219 C 7.875 13.761719 7.917969 13.546875 7.972656 13.308594 L 8.617188 11.03125 C 8.675781 10.8125 8.722656 10.605469 8.761719 10.414062 C 8.800781 10.21875 8.820312 10.039062 8.820312 9.878906 C 8.820312 9.589844 8.757812 9.386719 8.640625 9.269531 C 8.519531 9.15625 8.292969 9.101562 7.953125 9.101562 C 7.785156 9.101562 7.613281 9.125 7.441406 9.175781 C 7.265625 9.230469 7.117188 9.277344 6.992188 9.324219 L 7.160156 8.625 C 7.582031 8.453125 7.988281 8.304688 8.371094 8.183594 C 8.757812 8.058594 9.121094 8 9.464844 8 C 10.082031 8 10.5625 8.148438 10.898438 8.449219 C 11.230469 8.746094 11.398438 9.136719 11.398438 9.613281 C 11.398438 9.710938 11.386719 9.886719 11.363281 10.136719 C 11.34375 10.382812 11.300781 10.613281 11.238281 10.820312 L 10.59375 13.089844 C 10.542969 13.273438 10.496094 13.480469 10.453125 13.714844 C 10.414062 13.945312 10.390625 14.125 10.390625 14.242188 C 10.390625 14.542969 10.460938 14.75 10.59375 14.859375 C 10.726562 14.96875 10.964844 15.023438 11.292969 15.023438 C 11.453125 15.023438 11.625 14.996094 11.824219 14.941406 C 12.019531 14.886719 12.164062 14.839844 12.253906 14.796875 Z M 11.96875 6.289062 C 11.667969 6.566406 11.308594 6.707031 10.886719 6.707031 C 10.46875 6.707031 10.105469 6.566406 9.804688 6.289062 C 9.503906 6.011719 9.355469 5.671875 9.355469 5.277344 C 9.355469 4.886719 9.507812 4.546875 9.804688 4.265625 C 10.105469 3.984375 10.46875 3.847656 10.886719 3.847656 C 11.308594 3.847656 11.667969 3.984375 11.96875 4.265625 C 12.265625 4.546875 12.417969 4.886719 12.417969 5.277344 C 12.417969 5.675781 12.265625 6.011719 11.96875 6.289062 Z M 11.96875 6.289062 "/>
</g>
</svg>
